<svg xmlns="http://www.w3.org/2000/svg" xmlns:xlink="http://www.w3.org/1999/xlink" viewBox="0 0 595.28 841.89"><defs><style>.cls-1{fill:none;}.cls-2{fill:#231f20;}.cls-3{fill:url(#fbPattern);}</style><pattern id="fbPattern" data-name="fbPattern" width="136.67" height="136.59" patternUnits="userSpaceOnUse" viewBox="0 0 136.67 136.59"><rect class="cls-1" width="136.67" height="136.59"/><g id="pattern"><path class="cls-2" d="M42.55,26.26a46.37,46.37,0,0,0-7.71-.52c-5.15,0-9.74,1.28-9.74,8.55v9H42.55a.79.79,0,0,0,.8-.79v-3.8a.8.8,0,0,0-.8-.8H31.89V34.29c0-2.08.68-2.72,2.56-2.72h8.1a.8.8,0,0,0,.8-.8V27.06C43.35,26.54,43.11,26.34,42.55,26.26Z"/><path class="cls-2" d="M12.75,25.74H3.63a.8.8,0,0,0-.8.8v3.8a.8.8,0,0,0,.8.79H14.3v3.6c0,2.08-.68,2.71-2.56,2.71H3.63a.8.8,0,0,0-.8.8V42c0,.52.24.72.8.8a46.9,46.9,0,0,0,7.71.51c5.15,0,9.75-1.27,9.75-8.54v-9H12.75Z"/><path class="cls-2" d="M42,2.84H38.32a.79.79,0,0,0-.8.79v8.11c0,1.88-.64,2.56-2.72,2.56H31.21V3.63a.79.79,0,0,0-.8-.79H26.62a.79.79,0,0,0-.8.79V21.09h9c7.27,0,8.55-4.6,8.55-9.75a46.47,46.47,0,0,0-.52-7.71C42.75,3.07,42.55,2.84,42,2.84Z"/><path class="cls-2" d="M4.15,21.09H7.87a.8.8,0,0,0,.8-.8V12.18c0-1.88.63-2.56,2.71-2.56H15V20.29a.79.79,0,0,0,.79.8h3.8a.8.8,0,0,0,.8-.8V2.84h-9c-7.27,0-8.55,4.59-8.55,9.74a46.47,46.47,0,0,0,.52,7.71C3.43,20.85,3.63,21.09,4.15,21.09Z"/><path class="cls-2" d="M66.17,3.35a46.74,46.74,0,0,0-7.7-.51c-5.16,0-9.75,1.27-9.75,8.54v9H66.17a.8.8,0,0,0,.8-.8v-3.8a.8.8,0,0,0-.8-.79H55.51v-3.6c0-2.08.68-2.71,2.56-2.71h8.1a.8.8,0,0,0,.8-.8V4.15C67,3.63,66.73,3.43,66.17,3.35Z"/><path class="cls-2" d="M79.49,2.84a46.64,46.64,0,0,0-7.7.51c-.56.08-.8.28-.8.8V7.87a.8.8,0,0,0,.8.8h8.1c1.88,0,2.56.63,2.56,2.71V15H71.79a.8.8,0,0,0-.8.79v3.8a.8.8,0,0,0,.8.8H89.24v-9C89.24,4.11,84.64,2.84,79.49,2.84Z"/><path class="cls-2" d="M66.17,25.74H48.72v9c0,7.27,4.59,8.54,9.75,8.54a46.74,46.74,0,0,0,7.7-.51c.56-.08.8-.28.8-.8V38.24a.8.8,0,0,0-.8-.8h-8.1c-1.88,0-2.56-.63-2.56-2.71v-3.6H66.17a.8.8,0,0,0,.8-.79v-3.8A.8.8,0,0,0,66.17,25.74Z"/><path class="cls-2" d="M80.9,25.74H71.79a.8.8,0,0,0-.8.8v3.8a.8.8,0,0,0,.8.79H82.45v3.6c0,2.08-.68,2.71-2.56,2.71h-8.1a.8.8,0,0,0-.8.8V42c0,.52.24.72.8.8a46.64,46.64,0,0,0,7.7.51c5.15,0,9.75-1.27,9.75-8.54v-9H80.9Z"/><path class="cls-2" d="M110.77,3.35a46.9,46.9,0,0,0-7.71-.51c-5.15,0-9.74,1.27-9.74,8.54v9h17.45a.8.8,0,0,0,.8-.8v-3.8a.8.8,0,0,0-.8-.79H100.11v-3.6c0-2.08.68-2.71,2.55-2.71h8.11a.8.8,0,0,0,.8-.8V4.15C111.57,3.63,111.33,3.43,110.77,3.35Z"/><path class="cls-2" d="M124.93,8.67H133a.8.8,0,0,0,.79-.8V4.15c0-.52-.24-.72-.79-.8a46.9,46.9,0,0,0-7.71-.51c-5.15,0-9.75,1.27-9.75,8.54v9H133a.8.8,0,0,0,.79-.8v-3.8A.8.8,0,0,0,133,15H122.37v-3.6C122.37,9.3,123.05,8.67,124.93,8.67Z"/><path class="cls-2" d="M110.77,25.74H93.32v9c0,7.27,4.59,8.54,9.74,8.54a46.9,46.9,0,0,0,7.71-.51c.56-.08.8-.28.8-.8V38.24a.8.8,0,0,0-.8-.8h-8.11c-1.87,0-2.55-.63-2.55-2.71v-3.6h10.66a.8.8,0,0,0,.8-.79v-3.8A.8.8,0,0,0,110.77,25.74Z"/><path class="cls-2" d="M133,25.74H115.58v9c0,7.27,4.6,8.54,9.75,8.54a46.9,46.9,0,0,0,7.71-.51c.55-.08.79-.28.79-.8V38.24a.8.8,0,0,0-.79-.8h-8.11c-1.88,0-2.56-.63-2.56-2.71v-3.6H133a.8.8,0,0,0,.79-.79v-3.8A.8.8,0,0,0,133,25.74Z"/><path class="cls-2" d="M66.17,49.25a46.31,46.31,0,0,0-7.7-.52c-5.16,0-9.75,1.28-9.75,8.54v9H66.17a.8.8,0,0,0,.8-.8V61.67a.8.8,0,0,0-.8-.8H55.51v-3.6c0-2.07.68-2.71,2.56-2.71h8.1a.8.8,0,0,0,.8-.8V50.05C67,49.53,66.73,49.33,66.17,49.25Z"/><path class="cls-2" d="M58.63,71.71H49.52a.8.8,0,0,0-.8.8V76.3a.8.8,0,0,0,.8.8H60.18v3.6c0,2.07-.68,2.71-2.55,2.71H49.52a.8.8,0,0,0-.8.8v3.72c0,.52.24.72.8.79a46.37,46.37,0,0,0,7.71.52C62.38,89.24,67,88,67,80.7v-9H58.63Z"/><path class="cls-2" d="M88.44,49.25a46.47,46.47,0,0,0-7.71-.52C75.58,48.73,71,50,71,57.27v9H88.44a.8.8,0,0,0,.8-.8V61.67a.8.8,0,0,0-.8-.8H77.78v-3.6c0-2.07.67-2.71,2.55-2.71h8.11a.8.8,0,0,0,.8-.8V50.05C89.24,49.53,89,49.33,88.44,49.25Z"/><path class="cls-2" d="M80.9,71.71H71.79a.8.8,0,0,0-.8.8V76.3a.8.8,0,0,0,.8.8H82.45v3.6c0,2.07-.68,2.71-2.56,2.71h-8.1a.8.8,0,0,0-.8.8v3.72c0,.52.24.72.8.79a46.21,46.21,0,0,0,7.7.52c5.15,0,9.75-1.27,9.75-8.54v-9H80.9Z"/><path class="cls-2" d="M79.49,93.32a46.21,46.21,0,0,0-7.7.52c-.56.08-.8.28-.8.8v3.71a.8.8,0,0,0,.8.8h8.1c1.88,0,2.56.64,2.56,2.71v3.6H71.79a.8.8,0,0,0-.8.8v3.79a.8.8,0,0,0,.8.8H89.24v-9C89.24,94.6,84.64,93.32,79.49,93.32Z"/><path class="cls-2" d="M58.63,116.23H49.52a.8.8,0,0,0-.8.79v3.8a.8.8,0,0,0,.8.8H60.18v3.59c0,2.08-.68,2.72-2.55,2.72H49.52a.8.8,0,0,0-.8.8v3.71c0,.52.24.72.8.8a46.37,46.37,0,0,0,7.71.52c5.15,0,9.74-1.28,9.74-8.55v-9H58.63Z"/><path class="cls-2" d="M57.23,93.32a46.37,46.37,0,0,0-7.71.52c-.56.08-.8.28-.8.8v3.71a.8.8,0,0,0,.8.8h8.11c1.87,0,2.55.64,2.55,2.71v3.6H49.52a.8.8,0,0,0-.8.8v3.79a.8.8,0,0,0,.8.8H67v-9C67,94.6,62.38,93.32,57.23,93.32Z"/><path class="cls-2" d="M80.9,116.23H71.79a.8.8,0,0,0-.8.79v3.8a.8.8,0,0,0,.8.8H82.45v3.59c0,2.08-.68,2.72-2.56,2.72h-8.1a.8.8,0,0,0-.8.8v3.71c0,.52.24.72.8.8a46.21,46.21,0,0,0,7.7.52c5.15,0,9.75-1.28,9.75-8.55v-9H80.9Z"/><path class="cls-2" d="M125.49,93.32h-9.11a.8.8,0,0,0-.8.8v3.79a.8.8,0,0,0,.8.8h10.67v3.59c0,2.08-.68,2.72-2.56,2.72h-8.11a.8.8,0,0,0-.8.8v3.71c0,.52.24.72.8.8a46.47,46.47,0,0,0,7.71.52c5.15,0,9.74-1.28,9.74-8.55v-9h-8.34Z"/><path class="cls-2" d="M103.23,116.23H94.12a.8.8,0,0,0-.8.79v3.8a.8.8,0,0,0,.8.8h10.66v3.59c0,2.08-.68,2.72-2.56,2.72h-8.1a.8.8,0,0,0-.8.8v3.71c0,.52.24.72.8.8a46.21,46.21,0,0,0,7.7.52c5.16,0,9.75-1.28,9.75-8.55v-9h-8.34Z"/><path class="cls-2" d="M103.23,93.32H94.12a.8.8,0,0,0-.8.8v3.79a.8.8,0,0,0,.8.8h10.66v3.59c0,2.08-.68,2.72-2.56,2.72h-8.1a.8.8,0,0,0-.8.8v3.71c0,.52.24.72.8.8a46.21,46.21,0,0,0,7.7.52c5.16,0,9.75-1.28,9.75-8.55v-9h-8.34Z"/><path class="cls-2" d="M125.49,116.23h-9.11a.8.8,0,0,0-.8.79v3.8a.8.8,0,0,0,.8.8h10.67v3.59c0,2.08-.68,2.72-2.56,2.72h-8.11a.8.8,0,0,0-.8.8v3.71c0,.52.24.72.8.8a46.47,46.47,0,0,0,7.71.52c5.15,0,9.74-1.28,9.74-8.55v-9h-8.34Z"/><path class="cls-2" d="M125.49,49h-9.11a.8.8,0,0,0-.8.8v3.79a.8.8,0,0,0,.8.8h10.67V58c0,2.07-.68,2.71-2.56,2.71h-8.11a.8.8,0,0,0-.8.8v3.71c0,.52.24.72.8.8a46.47,46.47,0,0,0,7.71.52c5.15,0,9.74-1.28,9.74-8.54V49h-8.34Z"/><path class="cls-2" d="M133,71.71H115.58v9c0,7.27,4.6,8.54,9.75,8.54a46.47,46.47,0,0,0,7.71-.52c.55-.07.79-.27.79-.79V84.21a.8.8,0,0,0-.79-.8h-8.11c-1.88,0-2.56-.64-2.56-2.71V77.1H133a.8.8,0,0,0,.79-.8V72.51A.8.8,0,0,0,133,71.71Z"/><path class="cls-2" d="M103.23,49H94.12a.8.8,0,0,0-.8.8v3.79a.8.8,0,0,0,.8.8h10.66V58c0,2.07-.68,2.71-2.56,2.71h-8.1a.8.8,0,0,0-.8.8v3.71c0,.52.24.72.8.8a46.21,46.21,0,0,0,7.7.52c5.16,0,9.75-1.28,9.75-8.54V49h-8.34Z"/><path class="cls-2" d="M110.77,71.71H93.32v9c0,7.27,4.59,8.54,9.74,8.54a46.47,46.47,0,0,0,7.71-.52c.56-.07.8-.27.8-.79V84.21a.8.8,0,0,0-.8-.8h-8.11c-1.87,0-2.55-.64-2.55-2.71V77.1h10.66a.8.8,0,0,0,.8-.8V72.51A.8.8,0,0,0,110.77,71.71Z"/><path class="cls-2" d="M20.29,49.25a46.47,46.47,0,0,0-7.71-.52c-5.15,0-9.75,1.28-9.75,8.54v9H20.29a.8.8,0,0,0,.8-.8V61.67a.8.8,0,0,0-.8-.8H9.62v-3.6c0-2.07.68-2.71,2.56-2.71h8.11a.8.8,0,0,0,.8-.8V50.05C21.09,49.53,20.85,49.33,20.29,49.25Z"/><path class="cls-2" d="M12.75,71.71H3.63a.8.8,0,0,0-.8.8V76.3a.8.8,0,0,0,.8.8H14.3v3.6c0,2.07-.68,2.71-2.56,2.71H3.63a.8.8,0,0,0-.8.8v3.72c0,.52.24.72.8.79a46.47,46.47,0,0,0,7.71.52c5.15,0,9.75-1.27,9.75-8.54v-9H12.75Z"/><path class="cls-2" d="M42.55,71.71H25.1v9c0,7.27,4.59,8.54,9.74,8.54a46.37,46.37,0,0,0,7.71-.52c.56-.07.8-.27.8-.79V84.21a.8.8,0,0,0-.8-.8h-8.1c-1.88,0-2.56-.64-2.56-2.71V77.1H42.55a.8.8,0,0,0,.8-.8V72.51A.8.8,0,0,0,42.55,71.71Z"/><path class="cls-2" d="M33.61,48.73a46.37,46.37,0,0,0-7.71.52c-.56.08-.8.28-.8.8v3.71a.8.8,0,0,0,.8.8H34c1.87,0,2.55.64,2.55,2.71v3.6H25.9a.8.8,0,0,0-.8.8v3.79a.8.8,0,0,0,.8.8H43.35v-9C43.35,50,38.76,48.73,33.61,48.73Z"/><path class="cls-2" d="M20.29,94.5A46.47,46.47,0,0,0,12.58,94c-5.15,0-9.75,1.28-9.75,8.54v9H20.29a.8.8,0,0,0,.8-.8v-3.79a.8.8,0,0,0-.8-.8H9.62v-3.6c0-2.07.68-2.71,2.56-2.71h8.11a.8.8,0,0,0,.8-.8V95.3C21.09,94.78,20.85,94.58,20.29,94.5Z"/><path class="cls-2" d="M11.34,116.23a48.12,48.12,0,0,0-7.71.51c-.56.08-.8.28-.8.8v3.72a.8.8,0,0,0,.8.8h8.11c1.88,0,2.56.64,2.56,2.71v3.6H3.63a.8.8,0,0,0-.8.8V133a.8.8,0,0,0,.8.8H21.09v-9C21.09,117.5,16.49,116.23,11.34,116.23Z"/><path class="cls-2" d="M42.55,116.74a48,48,0,0,0-7.71-.51c-5.15,0-9.74,1.27-9.74,8.54v9H42.55a.8.8,0,0,0,.8-.8v-3.79a.8.8,0,0,0-.8-.8H31.89v-3.6c0-2.07.68-2.71,2.56-2.71h8.1a.8.8,0,0,0,.8-.8v-3.72C43.35,117,43.11,116.82,42.55,116.74Z"/><path class="cls-2" d="M33.61,94a46.37,46.37,0,0,0-7.71.52c-.56.08-.8.28-.8.8V99a.8.8,0,0,0,.8.8H34c1.87,0,2.55.64,2.55,2.71v3.6H25.9a.8.8,0,0,0-.8.8v3.79a.8.8,0,0,0,.8.8H43.35v-9C43.35,95.26,38.76,94,33.61,94Z"/></g></pattern></defs><title>pattern</title><g id="Layer_2" data-name="Layer 2"><g id="coverPage1"><rect class="cls-3" width="595.28" height="841.89"/></g></g></svg>